Coordinates
version=1
nRows=19
nColumns=24
inDegrees=yes

Units are S.I. units (second, meters, Newtons, ...)
Angles are in degrees.

endheader
time	pelvis_tilt	pelvis_list	pelvis_rotation	pelvis_tx	pelvis_ty	pelvis_tz	hip_flexion_r	hip_adduction_r	hip_rotation_r	knee_angle_r	ankle_angle_r	subtalar_angle_r	mtp_angle_r	hip_flexion_l	hip_adduction_l	hip_rotation_l	knee_angle_l	ankle_angle_l	subtalar_angle_l	mtp_angle_l	lumbar_extension	lumbar_bending	lumbar_rotation
      4.00500000	     -5.09147995	     -5.63270649	     -0.19018466	      0.07735455	     -0.01276818	     -0.13566615	      8.86903222	     14.90966253	     11.29526904	    -16.01614297	      0.20827503	     -5.71260180	      7.58076837	     33.69401421	     -7.02783941	     -7.86748461	    -64.68842386	     -5.36522873	     -8.12464810	    -17.81142336	      5.45804197	      4.67368683	     -0.67135396
      4.01000000	     -5.08933568	     -5.47607505	     -0.37566970	      0.08290370	     -0.01248071	     -0.13519034	      8.21829301	     14.77317518	     11.59925801	    -15.68656997	      0.37218004	     -5.70319562	      7.58579749	     34.24118531	     -6.87063629	     -8.08243131	    -63.59738066	     -4.68279153	     -7.47460699	    -17.22309774	      5.40641558	      4.52216817	     -0.42163257
      4.01500000	     -5.09832207	     -5.31033435	     -0.55139007	      0.08842167	     -0.01225518	     -0.13477778	      7.60484737	     14.62089203	     11.88236572	    -15.39584836	      0.54897206	     -5.71771019	      7.60974298	     34.76292245	     -6.69269139	     -8.29940927	    -62.41530074	     -4.00960852	     -6.79832315	    -16.60777342	      5.36114412	      4.37103650	     -0.19365052
      4.02000000	     -5.12137374	     -5.14446788	     -0.71666116	      0.09392737	     -0.01209164	     -0.13441578	      7.02314046	     14.46182205	     12.13456658	    -15.12483749	      0.72850464	     -5.73769706	      7.64994271	     35.26810723	     -6.50956578	     -8.52223842	    -61.15624716	     -3.35522829	     -6.09250462	    -16.03153567	      5.33419311	      4.22521828	      0.01638271
      4.02500000	     -5.07411756	     -4.94712533	     -0.86238062	      0.09942802	     -0.01185855	     -0.13406690	      6.35658164	     14.27075902	     12.41429395	    -14.83435092	      0.82753369	     -5.93258490	      7.63253398	     35.63292218	     -6.28174759	     -8.74192448	    -59.74647600	     -2.92016365	     -5.47155049	    -14.93614475	      5.22530710	      4.04025560	      0.24992167
      4.03000000	     -5.18076189	     -4.81306277	     -1.02286969	      0.10487469	     -0.01189041	     -0.13379011	      5.91268659	     14.13440514	     12.59221190	    -14.62698012	      1.03413090	     -5.85554682	      7.73750724	     36.17854968	     -6.13021731	     -8.96664881	    -58.36907029	     -2.25049255	     -4.66304222	    -14.55536551	      5.27986620	      3.93586045	      0.41465064
      4.03500000	     -5.23031934	     -4.66240063	     -1.18623854	      0.11032872	     -0.01189010	     -0.13351669	      5.40583133	     13.98275069	     12.77406639	    -14.41782441	      1.22156927	     -5.86368761	      7.81275086	     36.60591930	     -5.96295272	     -9.20500633	    -56.89619606	     -1.61682093	     -3.84543163	    -14.21683228	      5.27116382	      3.81580289	      0.61268474
      4.04000000	     -5.27278254	     -4.51317378	     -1.34000525	      0.11576282	     -0.01191912	     -0.13328514	      4.90395911	     13.83011897	     12.94699239	    -14.22688712	      1.38882716	     -5.90251760	      7.87852062	     36.98625472	     -5.79265204	     -9.45266197	    -55.34614027	     -1.02073691	     -3.02905305	    -13.93645679	      5.25075924	      3.69950861	      0.81034112
      4.04500000	     -5.32227000	     -4.37202879	     -1.48938837	      0.12117631	     -0.01200277	     -0.13308789	      4.42519390	     13.68450187	     13.10755602	    -14.05957688	      1.55441571	     -5.94525817	      7.94783729	     37.33841178	     -5.63076703	     -9.71374760	    -53.73063158	     -0.45675168	     -2.20882529	    -13.72434851	      5.23268408	      3.59562792	      0.99791394
      4.05000000	     -5.37715909	     -4.24005866	     -1.63852946	      0.12656392	     -0.01213638	     -0.13292046	      3.96914357	     13.54707200	     13.25324541	    -13.91828736	      1.71946018	     -5.98252021	      8.02113087	     37.65995187	     -5.47888288	     -9.98665809	    -52.05175869	      0.06957451	     -1.38968407	    -13.58208837	      5.21533361	      3.50452457	      1.18440035
      4.05500000	     -5.43507574	     -4.11911402	     -1.79883936	      0.13191615	     -0.01231741	     -0.13276672	      3.53317603	     13.42070379	     13.38514693	    -13.80164545	      1.88876411	     -6.00708018	      8.10020623	     37.94669377	     -5.34420170	    -10.27241067	    -50.31410551	      0.55861135	     -0.57140181	    -13.50573984	      5.19177084	      3.42827014	      1.37326527
      4.06000000	     -5.48754410	     -4.00792883	     -1.95588149	      0.13727074	     -0.01253470	     -0.13262961	      3.10561028	     13.30296591	     13.50542082	    -13.71354907	      2.06387613	     -6.01053526	      8.18824683	     38.18809818	     -5.22330895	    -10.58198306	    -48.51992918	      1.01723121	      0.25540128	    -13.49394492	      5.16755025	      3.36496522	      1.58245841
      4.06500000	     -5.54479726	     -3.90965746	     -2.11853976	      0.14260032	     -0.01280130	     -0.13251602	      2.69878009	     13.19567714	     13.60789961	    -13.64971543	      2.24792223	     -5.98154882	      8.28561653	     38.39969837	     -5.11848247	    -10.90652891	    -46.67910581	      1.44291678	      1.08697205	    -13.53541502	      5.14148859	      3.31856003	      1.78542810
      4.07000000	     -5.60040970	     -3.83036816	     -2.28345623	      0.14791327	     -0.01311288	     -0.13242119	      2.30333615	     13.10424550	     13.69254539	    -13.60800340	      2.44240670	     -5.91010563	      8.39552173	     38.57769245	     -5.03633932	    -11.25007353	    -44.80114808	      1.84132344	      1.92816465	    -13.61604171	      5.10557972	      3.29167024	      1.99055380
      4.07500000	     -5.64130695	     -3.76630237	     -2.44682291	      0.15322616	     -0.01345685	     -0.13234323	      1.90753042	     13.02450460	     13.75358676	    -13.59753207	      2.65419379	     -5.79412215	      8.52425565	     38.70556451	     -4.96980348	    -11.61458449	    -42.88836522	      2.23147263	      2.78332052	    -13.73324313	      5.05588839	      3.28486393	      2.20696829
      4.08000000	     -5.69448301	     -3.72013366	     -2.60584892	      0.15855214	     -0.01384963	     -0.13226593	      1.52517495	     12.95777585	     13.79485033	    -13.58434456	      2.86439074	     -5.62894397	      8.66354037	     38.82164731	     -4.92579571	    -11.99810644	    -40.95916426	      2.58526750	      3.68402827	    -13.83842087	      5.01935188	      3.29004788	      2.38847972
      4.08500000	     -5.70854267	     -3.68945468	     -2.77106714	      0.16389697	     -0.01425282	     -0.13220190	      1.11132219	     12.89989445	     13.80623392	    -13.59737203	      3.10361885	     -5.40467674	      8.83540782	     38.86100029	     -4.89652470	    -12.40440447	    -39.01059684	      2.96869151	      4.60487315	    -13.95746423	      4.94658337	      3.31688492	      2.61904463
      4.09000000	     -5.73523059	     -3.67969484	     -2.90653801	      0.16926813	     -0.01470574	     -0.13215789	      0.71086466	     12.85795119	     13.80627253	    -13.61156227	      3.32651539	     -5.14492532	      9.01653503	     38.90365822	     -4.88363159	    -12.84798872	    -37.07131246	      3.31810810	      5.59679138	    -14.03989693	      4.89036279	      3.35426270	      2.77327891
      4.09500000	     -5.71675873	     -3.68036607	     -3.05992078	      0.17466687	     -0.01515491	     -0.13213607	      0.26466131	     12.81348875	     13.77816474	    -13.63525841	      3.57663954	     -4.81546500	      9.23946742	     38.86435820	     -4.87966183	    -13.30933272	    -35.12959137	      3.72135453	      6.62071606	    -14.11794384	      4.78179784	      3.41344178	      2.99183061
